<svg width="17" height="16" viewBox="0 0 17 16" fill="none" xmlns="http://www.w3.org/2000/svg">
<path fill-rule="evenodd" clip-rule="evenodd" d="M1.16675 8.00004C1.16675 7.63185 1.46522 7.33337 1.83341 7.33337H15.1667C15.5349 7.33337 15.8334 7.63185 15.8334 8.00004C15.8334 8.36823 15.5349 8.66671 15.1667 8.66671H1.83341C1.46522 8.66671 1.16675 8.36823 1.16675 8.00004Z" fill="#808080"/>
<path fill-rule="evenodd" clip-rule="evenodd" d="M6.97149 2.86195C7.23184 3.1223 7.23184 3.54441 6.97149 3.80476L2.77622 8.00002L6.97149 12.1953C7.23184 12.4556 7.23184 12.8777 6.97149 13.1381C6.71114 13.3984 6.28903 13.3984 6.02868 13.1381L1.36201 8.47142C1.10166 8.21108 1.10166 7.78896 1.36201 7.52862L6.02868 2.86195C6.28903 2.6016 6.71114 2.6016 6.97149 2.86195Z" fill="#808080"/>
</svg>
