<svg width="48" height="48" viewBox="0 0 48 48" fill="none" xmlns="http://www.w3.org/2000/svg">
<path fill-rule="evenodd" clip-rule="evenodd" d="M2 12C2 10.8954 2.89543 10 4 10H40C41.1046 10 42 10.8954 42 12V26C42 27.1046 41.1046 28 40 28C38.8954 28 38 27.1046 38 26V14H6V44H26C27.1046 44 28 44.8954 28 46C28 47.1046 27.1046 48 26 48H4C2.89543 48 2 47.1046 2 46V12Z" fill="white"/>
<path fill-rule="evenodd" clip-rule="evenodd" d="M22 4C18.6866 4 16 6.68657 16 10V18C16 19.1046 15.1046 20 14 20C12.8954 20 12 19.1046 12 18V10C12 4.47743 16.4774 0 22 0C27.5226 0 32 4.47743 32 10V18C32 19.1046 31.1046 20 30 20C28.8954 20 28 19.1046 28 18V10C28 6.68657 25.3134 4 22 4Z" fill="white"/>
<path fill-rule="evenodd" clip-rule="evenodd" d="M30 40C30 38.8954 30.8954 38 32 38H44C45.1046 38 46 38.8954 46 40C46 41.1046 45.1046 42 44 42H32C30.8954 42 30 41.1046 30 40Z" fill="white"/>
</svg>
