<svg width="16" height="16" viewBox="0 0 16 16" fill="none" xmlns="http://www.w3.org/2000/svg">
<path fill-rule="evenodd" clip-rule="evenodd" d="M4 4.6665H16V15.3332H4V12.6665H5.33333V13.9998H14.6667V5.99984H5.33333V7.33317H4V4.6665Z" fill="#222222"/>
<path fill-rule="evenodd" clip-rule="evenodd" d="M0 10.6665H6.66667V11.9998H0V10.6665Z" fill="#222222"/>
<path fill-rule="evenodd" clip-rule="evenodd" d="M1.33325 8H7.99992V9.33333H1.33325V8Z" fill="#222222"/>
<path fill-rule="evenodd" clip-rule="evenodd" d="M9.99992 1.99984C9.6463 1.99984 9.30716 2.14031 9.05711 2.39036C8.80706 2.64041 8.66659 2.97955 8.66659 3.33317V5.33317H7.33325V3.33317C7.33325 2.62593 7.6142 1.94765 8.1143 1.44755C8.6144 0.947455 9.29267 0.666504 9.99992 0.666504C10.7072 0.666504 11.3854 0.947455 11.8855 1.44755C12.3856 1.94765 12.6666 2.62593 12.6666 3.33317V5.33317H11.3333V3.33317C11.3333 2.97955 11.1928 2.64041 10.9427 2.39036C10.6927 2.14031 10.3535 1.99984 9.99992 1.99984Z" fill="#222222"/>
</svg>
