<svg width="16" height="16" viewBox="0 0 16 16" fill="none" xmlns="http://www.w3.org/2000/svg">
<path fill-rule="evenodd" clip-rule="evenodd" d="M0 11.3332V6.6665H1.33333V11.3332C1.33333 11.7016 1.63152 11.9998 2 11.9998V13.3332C0.895144 13.3332 0 12.438 0 11.3332Z" fill="#222222"/>
<path fill-rule="evenodd" clip-rule="evenodd" d="M8 0.666504H11.3333V8.6665C11.3333 9.77136 10.4382 10.6665 9.33333 10.6665H8C6.89514 10.6665 6 9.77136 6 8.6665V5.99984H7.33333V8.6665C7.33333 9.03498 7.63152 9.33317 8 9.33317H9.33333C9.70181 9.33317 10 9.03498 10 8.6665V1.99984H8V0.666504Z" fill="#222222"/>
<path fill-rule="evenodd" clip-rule="evenodd" d="M13.2989 5.12158L15.2322 10.8996L13.9678 11.3227L12.0345 5.54466L13.2989 5.12158Z" fill="#222222"/>
<path fill-rule="evenodd" clip-rule="evenodd" d="M6 13.3333V12H11.3333V13.3333H6Z" fill="#222222"/>
<path fill-rule="evenodd" clip-rule="evenodd" d="M3.99998 11.3333C3.2636 11.3333 2.66665 11.9303 2.66665 12.6667C2.66665 13.403 3.2636 14 3.99998 14C4.73636 14 5.33331 13.403 5.33331 12.6667C5.33331 11.9303 4.73636 11.3333 3.99998 11.3333ZM1.33331 12.6667C1.33331 11.1939 2.52722 10 3.99998 10C5.47274 10 6.66665 11.1939 6.66665 12.6667C6.66665 14.1394 5.47274 15.3333 3.99998 15.3333C2.52722 15.3333 1.33331 14.1394 1.33331 12.6667Z" fill="#222222"/>
<path fill-rule="evenodd" clip-rule="evenodd" d="M2 4.66634C1.63152 4.66634 1.33333 4.96453 1.33333 5.33301V5.99967H6V5.33301C6 4.96453 5.70181 4.66634 5.33333 4.66634H2ZM0 5.33301C0 4.22815 0.895144 3.33301 2 3.33301H5.33333C6.43819 3.33301 7.33333 4.22815 7.33333 5.33301V7.33301H0V5.33301Z" fill="#222222"/>
<path fill-rule="evenodd" clip-rule="evenodd" d="M13.3334 11.3333C12.597 11.3333 12 11.9303 12 12.6667C12 13.403 12.597 14 13.3334 14C14.0697 14 14.6667 13.403 14.6667 12.6667C14.6667 11.9303 14.0697 11.3333 13.3334 11.3333ZM10.6667 12.6667C10.6667 11.1939 11.8606 10 13.3334 10C14.8061 10 16 11.1939 16 12.6667C16 14.1394 14.8061 15.3333 13.3334 15.3333C11.8606 15.3333 10.6667 14.1394 10.6667 12.6667Z" fill="#222222"/>
<path fill-rule="evenodd" clip-rule="evenodd" d="M12 3.33333C11.6315 3.33333 11.3333 3.63152 11.3333 4C11.3333 4.36848 11.6315 4.66667 12 4.66667H13.3333V3.33333H12ZM10 4C10 2.89514 10.8951 2 12 2H14.6667V6H12C10.8951 6 10 5.10486 10 4Z" fill="#222222"/>
</svg>
