<svg width="48" height="48" viewBox="0 0 48 48" fill="none" xmlns="http://www.w3.org/2000/svg">
<path fill-rule="evenodd" clip-rule="evenodd" d="M8.58579 12.5858C9.36683 11.8047 10.6332 11.8047 11.4142 12.5858L24 25.1716L36.5858 12.5858C37.3668 11.8047 38.6332 11.8047 39.4142 12.5858C40.1953 13.3668 40.1953 14.6332 39.4142 15.4142L25.4142 29.4142C24.6332 30.1953 23.3668 30.1953 22.5858 29.4142L8.58579 15.4142C7.80474 14.6332 7.80474 13.3668 8.58579 12.5858Z" fill="white"/>
<path fill-rule="evenodd" clip-rule="evenodd" d="M6 8C4.89543 8 4 8.89543 4 10V38C4 39.1046 4.89543 40 6 40H42C43.1046 40 44 39.1046 44 38V10C44 8.89543 43.1046 8 42 8H6ZM0 10C0 6.68629 2.68629 4 6 4H42C45.3137 4 48 6.68629 48 10V38C48 41.3137 45.3137 44 42 44H6C2.68629 44 0 41.3137 0 38V10Z" fill="white"/>
<path fill-rule="evenodd" clip-rule="evenodd" d="M15.4142 28.5858C16.1953 29.3668 16.1953 30.6332 15.4142 31.4142L11.4142 35.4142C10.6332 36.1953 9.36683 36.1953 8.58579 35.4142C7.80474 34.6332 7.80474 33.3668 8.58579 32.5858L12.5858 28.5858C13.3668 27.8047 14.6332 27.8047 15.4142 28.5858Z" fill="white"/>
<path fill-rule="evenodd" clip-rule="evenodd" d="M32.5858 28.5858C33.3668 27.8047 34.6332 27.8047 35.4142 28.5858L39.4142 32.5858C40.1953 33.3668 40.1953 34.6332 39.4142 35.4142C38.6332 36.1953 37.3668 36.1953 36.5858 35.4142L32.5858 31.4142C31.8047 30.6332 31.8047 29.3668 32.5858 28.5858Z" fill="white"/>
</svg>
