<svg width="24" height="24" viewBox="0 0 24 24" fill="none" xmlns="http://www.w3.org/2000/svg">
<path fill-rule="evenodd" clip-rule="evenodd" d="M4.29289 6.29289C4.68342 5.90237 5.31658 5.90237 5.70711 6.29289L12 12.5858L18.2929 6.29289C18.6834 5.90237 19.3166 5.90237 19.7071 6.29289C20.0976 6.68342 20.0976 7.31658 19.7071 7.70711L12.7071 14.7071C12.3166 15.0976 11.6834 15.0976 11.2929 14.7071L4.29289 7.70711C3.90237 7.31658 3.90237 6.68342 4.29289 6.29289Z" fill="#141414"/>
<path fill-rule="evenodd" clip-rule="evenodd" d="M3 4C2.44772 4 2 4.44772 2 5V19C2 19.5523 2.44772 20 3 20H21C21.5523 20 22 19.5523 22 19V5C22 4.44772 21.5523 4 21 4H3ZM0 5C0 3.34315 1.34315 2 3 2H21C22.6569 2 24 3.34315 24 5V19C24 20.6569 22.6569 22 21 22H3C1.34315 22 0 20.6569 0 19V5Z" fill="#141414"/>
<path fill-rule="evenodd" clip-rule="evenodd" d="M7.70711 14.2929C8.09763 14.6834 8.09763 15.3166 7.70711 15.7071L5.70711 17.7071C5.31658 18.0976 4.68342 18.0976 4.29289 17.7071C3.90237 17.3166 3.90237 16.6834 4.29289 16.2929L6.29289 14.2929C6.68342 13.9024 7.31658 13.9024 7.70711 14.2929Z" fill="#141414"/>
<path fill-rule="evenodd" clip-rule="evenodd" d="M16.2929 14.2929C16.6834 13.9024 17.3166 13.9024 17.7071 14.2929L19.7071 16.2929C20.0976 16.6834 20.0976 17.3166 19.7071 17.7071C19.3166 18.0976 18.6834 18.0976 18.2929 17.7071L16.2929 15.7071C15.9024 15.3166 15.9024 14.6834 16.2929 14.2929Z" fill="#141414"/>
</svg>
