<svg width="16" height="16" viewBox="0 0 16 16" fill="none" xmlns="http://www.w3.org/2000/svg">
<path d="M0.666748 1.33337H8.23122C13.3655 1.33337 15.3334 4.13712 15.3334 7.67398C15.3334 11.915 12.5853 14.0431 8.23122 14.0431H0.666748V1.33337ZM1.40008 2.06671V13.3102H8.23122C12.3555 13.3102 14.5994 11.3884 14.5994 7.67398C14.5994 3.85666 12.1669 2.06648 8.23122 2.06648H1.40008V2.06671Z" fill="black"/>
<path d="M2.31665 8.50085H4.5034V12.3929H2.31665V8.50085Z" fill="black"/>
<path d="M3.40982 7.89885C4.1604 7.89885 4.76886 7.29036 4.76886 6.53976C4.76886 5.78915 4.1604 5.18066 3.40982 5.18066C2.65924 5.18066 2.05078 5.78915 2.05078 6.53976C2.05078 7.29036 2.65924 7.89885 3.40982 7.89885Z" fill="black"/>
<path d="M9.08932 7.17557V7.80579H7.53118V5.27687H9.03955V5.90686H8.16116V6.19965H8.99179V6.82987H8.16116V7.1758L9.08932 7.17557ZM9.36194 7.80623L10.1244 5.27597H11.0207L11.783 7.80623H11.1272L10.9842 7.31682H10.1601L10.0168 7.80623H9.36194ZM10.3448 6.68728H10.8008L10.5916 5.97255H10.5535L10.3448 6.68728ZM12.0998 5.2762H12.7302V7.1758H13.6633C13.4073 3.72903 10.6963 2.98425 8.23156 2.98425H5.6047V5.27754H5.99345C6.70234 5.27754 7.14243 5.75821 7.14243 6.53169C7.14243 7.32982 6.71288 7.80623 5.99345 7.80623H5.6047V12.3946H8.23178C12.2372 12.3946 13.6321 10.5342 13.6815 7.80579H12.0998V5.2762ZM5.60425 5.90753V7.1758H5.99345C6.26315 7.1758 6.51245 7.09778 6.51245 6.53146C6.51245 5.97837 6.23513 5.90753 5.99345 5.90753H5.60425Z" fill="#D50072"/>
</svg>
