<svg width="48" height="48" viewBox="0 0 48 48" fill="none" xmlns="http://www.w3.org/2000/svg">
<path fill-rule="evenodd" clip-rule="evenodd" d="M34.5858 0.585786C34.9609 0.210714 35.4696 0 36 0H46C47.1046 0 48 0.89543 48 2V10C48 10.5304 47.7893 11.0391 47.4142 11.4142L41.4142 17.4142C41.0391 17.7893 40.5304 18 40 18H36V22C36 22.5304 35.7893 23.0391 35.4142 23.4142L31.3417 27.4867C31.7646 28.9135 32 30.4266 32 32C32 40.8366 24.8366 48 16 48C7.16343 48 0 40.8366 0 32C0 23.1634 7.16343 16 16 16C16.9971 16 17.964 16.0992 18.8961 16.2755L34.5858 0.585786ZM36.8284 4L20.9462 19.8822C20.4438 20.3846 19.7125 20.5828 19.0252 20.4027C18.0422 20.1452 17.0329 20 16 20C9.37257 20 4 25.3726 4 32C4 38.6274 9.37257 44 16 44C22.6274 44 28 38.6274 28 32C28 30.4798 27.7052 29.0256 27.1825 27.673C26.8971 26.9347 27.0741 26.0975 27.6338 25.5378L32 21.1716V16C32 14.8954 32.8954 14 34 14H39.1716L44 9.17157V4H36.8284Z" fill="white"/>
<path fill-rule="evenodd" clip-rule="evenodd" d="M16 30C14.8954 30 14 30.8954 14 32C14 33.1046 14.8954 34 16 34C17.1046 34 18 33.1046 18 32C18 30.8954 17.1046 30 16 30ZM10 32C10 28.6863 12.6863 26 16 26C19.3137 26 22 28.6863 22 32C22 35.3137 19.3137 38 16 38C12.6863 38 10 35.3137 10 32Z" fill="white"/>
</svg>
