<svg width="16" height="16" viewBox="0 0 16 16" fill="none" xmlns="http://www.w3.org/2000/svg">
<path fill-rule="evenodd" clip-rule="evenodd" d="M2.73704 11.0352L3.92961 11.6314L2.41202 14.6666H13.588L12.0704 11.6314L13.2629 11.0352L15.7453 16H0.254639L2.73704 11.0352Z" fill="#808080"/>
<path fill-rule="evenodd" clip-rule="evenodd" d="M8.00008 1.33333C6.04614 1.33333 4.00008 2.81161 4.00008 5.33333C4.00008 5.89387 4.23412 6.61368 4.65474 7.42698C5.0681 8.22623 5.62687 9.05039 6.19762 9.80173C6.76661 10.5508 7.33723 11.2141 7.76636 11.6907C7.85015 11.7838 7.92842 11.8696 8.00008 11.9474C8.07175 11.8696 8.15001 11.7838 8.2338 11.6907C8.66294 11.2141 9.23355 10.5508 9.80255 9.80173C10.3733 9.05039 10.9321 8.22623 11.3454 7.42698C11.766 6.61368 12.0001 5.89387 12.0001 5.33333C12.0001 2.81161 9.95402 1.33333 8.00008 1.33333ZM8.00008 12.9167C7.52684 13.3862 7.52675 13.3861 7.52664 13.386L7.52232 13.3817L7.51115 13.3703L7.46971 13.3279C7.43388 13.291 7.38201 13.2373 7.31638 13.1683C7.18516 13.0302 6.99873 12.8308 6.77546 12.5828C6.3296 12.0876 5.73355 11.3951 5.13588 10.6083C4.53996 9.82377 3.93207 8.93211 3.47042 8.03948C3.01604 7.16091 2.66675 6.2128 2.66675 5.33333C2.66675 1.94839 5.44336 0 8.00008 0C10.5568 0 13.3334 1.94839 13.3334 5.33333C13.3334 6.2128 12.9841 7.16091 12.5297 8.03948C12.0681 8.93211 11.4602 9.82377 10.8643 10.6083C10.2666 11.3951 9.67056 12.0876 9.2247 12.5828C9.00143 12.8308 8.815 13.0302 8.68378 13.1683C8.61816 13.2373 8.56628 13.291 8.53045 13.3279L8.48902 13.3703L8.47785 13.3817L8.47382 13.3857C8.47372 13.3858 8.47333 13.3862 8.00008 12.9167ZM8.00008 12.9167L8.47333 13.3862L8.00008 13.8632L7.52664 13.386L8.00008 12.9167Z" fill="#808080"/>
<path fill-rule="evenodd" clip-rule="evenodd" d="M8 4.66634C7.63181 4.66634 7.33333 4.96482 7.33333 5.33301C7.33333 5.7012 7.63181 5.99967 8 5.99967C8.36819 5.99967 8.66667 5.7012 8.66667 5.33301C8.66667 4.96482 8.36819 4.66634 8 4.66634ZM6 5.33301C6 4.22844 6.89543 3.33301 8 3.33301C9.10457 3.33301 10 4.22844 10 5.33301C10 6.43758 9.10457 7.33301 8 7.33301C6.89543 7.33301 6 6.43758 6 5.33301Z" fill="#808080"/>
</svg>
