<svg width="16" height="16" viewBox="0 0 16 16" fill="none" xmlns="http://www.w3.org/2000/svg">
<path d="M6.23339 4.589L6.23506 4.58967C6.26972 4.442 6.39572 4.33333 6.55339 4.33333H11.0441C11.0497 4.33333 11.0554 4.331 11.0611 4.33133C10.9654 2.73833 9.62906 2 8.45006 2H3.95939C3.80139 2 3.67539 2.11167 3.64106 2.259L3.63939 2.25833L1.67639 11.271L1.68072 11.2713C1.67606 11.2927 1.66772 11.313 1.66772 11.336C1.66772 11.5203 1.81672 11.6663 2.00106 11.6663H4.69139L6.23339 4.589Z" fill="#1565C0"/>
<path d="M11.061 4.3313C11.0786 4.6233 11.0593 4.94097 10.9846 5.29197C10.5576 7.2903 9.01396 8.3303 7.1063 8.3303C7.1063 8.3303 5.94963 8.3303 5.66863 8.3303C5.49496 8.3303 5.41296 8.4323 5.3753 8.5103L4.7953 11.1933L4.69363 11.6696H4.69163L4.27063 13.6016L4.27496 13.602C4.2703 13.6233 4.26196 13.6436 4.26196 13.6666C4.26196 13.851 4.41096 14 4.5953 14H7.03963L7.04396 13.9966C7.2013 13.9943 7.3263 13.882 7.35896 13.734L7.36496 13.729L7.96896 10.9236C7.96896 10.9236 8.01096 10.656 8.2923 10.656C8.57363 10.656 9.68496 10.656 9.68496 10.656C11.5926 10.656 13.152 9.62063 13.5793 7.62197C14.06 5.36863 12.4526 4.33963 11.061 4.3313Z" fill="#039BE5"/>
<path d="M6.55333 4.33333C6.39533 4.33333 6.26933 4.442 6.235 4.58966L6.23333 4.589L5.375 8.51066C5.41267 8.43266 5.49467 8.33066 5.66833 8.33066C5.94967 8.33066 7.08 8.33066 7.08 8.33066C8.98767 8.33066 10.5573 7.29066 10.9843 5.29233C11.0593 4.94133 11.0783 4.62366 11.0607 4.33166C11.0553 4.331 11.0493 4.33333 11.044 4.33333H6.55333Z" fill="#283593"/>
</svg>
