<svg width="16" height="16" viewBox="0 0 16 16" fill="none" xmlns="http://www.w3.org/2000/svg">
<path d="M10.0234 2.64258L13.3567 5.97591L12.4139 6.91872L9.08057 3.58539L10.0234 2.64258Z" fill="#808080"/>
<path d="M10.4713 1.25208L1.37751 10.3459L0.522278 15.4773L5.65365 14.622L14.7474 5.52829C15.5282 4.74722 15.5282 3.48122 14.7475 2.70022L13.2993 1.25208C12.5183 0.471313 11.2523 0.471313 10.4713 1.25208ZM12.3566 2.19496L13.8046 3.64296L13.86 3.70574C14.0632 3.96719 14.0447 4.34524 13.8045 4.58555L5.01198 13.3772L2.14398 13.8552L2.62198 10.9865L11.4141 2.19496C11.6543 1.95479 12.0323 1.93631 12.2938 2.13959L12.3566 2.19496Z" fill="#808080"/>
</svg>
