<svg width="16" height="16" viewBox="0 0 16 16" fill="none" xmlns="http://www.w3.org/2000/svg">
<path fill-rule="evenodd" clip-rule="evenodd" d="M4.31099 0.710677C4.60736 0.632331 4.92202 0.663072 5.19763 0.797297C5.47324 0.931523 5.69146 1.1603 5.81251 1.44194L7.27969 4.86179C7.37942 5.09506 7.40751 5.35272 7.36038 5.60199C7.31325 5.85126 7.19304 6.08088 7.01504 6.26164L5.98081 7.31107C6.33884 7.84529 6.74291 8.34757 7.18857 8.81209C7.65196 9.25807 8.15361 9.66201 8.68756 10.0193L9.73718 8.98393C9.91861 8.80528 10.1497 8.68448 10.4 8.6378C10.6498 8.59121 10.9078 8.62015 11.1411 8.72092C11.1415 8.72111 11.142 8.72131 11.1424 8.7215L14.56 10.1868C14.8418 10.3079 15.0705 10.5263 15.2046 10.8021C15.3385 11.0776 15.369 11.392 15.2906 11.6881M15.2903 11.6891L14.5811 14.3743C14.5809 14.3752 14.5806 14.3761 14.5804 14.377C14.5078 14.6575 14.3419 14.9049 14.11 15.0786C13.8773 15.2529 13.5922 15.3426 13.3016 15.3328L13.2877 15.3322C9.99778 15.1526 6.88494 13.7847 4.5276 11.4829L4.51635 11.4716C2.21518 9.11469 0.84763 6.0027 0.667692 2.71362C0.667377 2.70787 0.667137 2.70212 0.666971 2.69636C0.658647 2.40677 0.748859 2.12293 0.922846 1.89129C1.09645 1.66016 1.34319 1.49464 1.62286 1.42169L4.31099 0.710677M4.60613 2.0118L2.00245 2.70048C2.17776 5.64239 3.40652 8.42356 5.46482 10.5344C7.57631 12.5936 10.3586 13.8227 13.3016 13.9975L13.9895 11.3929L10.6467 9.95965L9.24621 11.3411C9.02925 11.5552 8.69479 11.5948 8.4338 11.4375C7.64664 10.9628 6.91539 10.4012 6.25385 9.76301C6.24784 9.75722 6.24194 9.7513 6.23615 9.74528C5.59943 9.08311 5.03823 8.35226 4.56289 7.56617C4.40509 7.30521 4.44447 6.97045 4.65853 6.75325L6.03925 5.35225L4.60613 2.0118Z" fill="white"/>
</svg>
