<svg width="16" height="16" viewBox="0 0 16 16" fill="none" xmlns="http://www.w3.org/2000/svg">
<path fill-rule="evenodd" clip-rule="evenodd" d="M2.73704 11.0352L3.92961 11.6314L2.41202 14.6666H13.588L12.0704 11.6314L13.2629 11.0352L15.7453 16H0.254639L2.73704 11.0352Z" fill="white"/>
<path fill-rule="evenodd" clip-rule="evenodd" d="M8.00002 1.33333C6.04608 1.33333 4.00002 2.81161 4.00002 5.33333C4.00002 5.89387 4.23406 6.61368 4.65468 7.42698C5.06804 8.22623 5.62681 9.05039 6.19756 9.80173C6.76655 10.5508 7.33716 11.2141 7.7663 11.6907C7.85009 11.7838 7.92835 11.8696 8.00002 11.9474C8.07169 11.8696 8.14995 11.7838 8.23374 11.6907C8.66288 11.2141 9.23349 10.5508 9.80248 9.80173C10.3732 9.05039 10.932 8.22623 11.3454 7.42698C11.766 6.61368 12 5.89387 12 5.33333C12 2.81161 9.95396 1.33333 8.00002 1.33333ZM8.00002 12.9167C7.52677 13.3862 7.52669 13.3861 7.52658 13.386L7.52226 13.3817L7.51109 13.3703L7.46965 13.3279C7.43382 13.291 7.38195 13.2373 7.31632 13.1683C7.1851 13.0302 6.99867 12.8308 6.7754 12.5828C6.32954 12.0876 5.73349 11.3951 5.13582 10.6083C4.53989 9.82377 3.93201 8.93211 3.47036 8.03948C3.01598 7.16091 2.66669 6.2128 2.66669 5.33333C2.66669 1.94839 5.4433 0 8.00002 0C10.5567 0 13.3334 1.94839 13.3334 5.33333C13.3334 6.2128 12.9841 7.16091 12.5297 8.03948C12.068 8.93211 11.4601 9.82377 10.8642 10.6083C10.2665 11.3951 9.6705 12.0876 9.22464 12.5828C9.00137 12.8308 8.81494 13.0302 8.68372 13.1683C8.61809 13.2373 8.56622 13.291 8.53039 13.3279L8.48895 13.3703L8.47778 13.3817L8.47376 13.3857C8.47365 13.3858 8.47327 13.3862 8.00002 12.9167ZM8.00002 12.9167L8.47327 13.3862L8.00002 13.8632L7.52658 13.386L8.00002 12.9167Z" fill="white"/>
<path fill-rule="evenodd" clip-rule="evenodd" d="M8 4.66659C7.63181 4.66659 7.33333 4.96506 7.33333 5.33325C7.33333 5.70144 7.63181 5.99992 8 5.99992C8.36819 5.99992 8.66667 5.70144 8.66667 5.33325C8.66667 4.96506 8.36819 4.66659 8 4.66659ZM6 5.33325C6 4.22868 6.89543 3.33325 8 3.33325C9.10457 3.33325 10 4.22868 10 5.33325C10 6.43782 9.10457 7.33325 8 7.33325C6.89543 7.33325 6 6.43782 6 5.33325Z" fill="white"/>
</svg>
