<svg width="16" height="16" viewBox="0 0 16 16" fill="none" xmlns="http://www.w3.org/2000/svg">
<path fill-rule="evenodd" clip-rule="evenodd" d="M0 7.3335H1.33333C1.76721 7.3335 2.48537 7.41617 3.20161 7.64001C3.80023 7.82709 4.4876 8.14057 4.98126 8.66683H6.66667C7.55072 8.66683 8.39857 9.01802 9.02369 9.64314C9.13588 9.75533 9.23925 9.8747 9.33335 10.0002H12.6667C13.7851 10.0002 14.4868 10.4085 14.8926 10.9184C15.0848 11.1599 15.1922 11.4016 15.2521 11.5851C15.2821 11.6772 15.3008 11.7567 15.3125 11.8171C15.3183 11.8474 15.3224 11.8732 15.3252 11.8938C15.3266 11.904 15.3277 11.9131 15.3286 11.9207L15.3298 11.9311L15.3302 11.9355L15.3304 11.9375L15.3305 11.9385C15.3305 11.939 15.3306 11.9394 14.6667 12.0002L15.3306 11.9394L15.3765 12.4414L7.06265 15.6391C6.7167 15.7721 6.3468 15.8316 5.97657 15.8137C5.60639 15.7958 5.244 15.7009 4.91252 15.5351C4.91249 15.5351 4.91256 15.5351 4.91252 15.5351L0 13.0789V7.3335ZM13.7455 11.6402C13.5795 11.4951 13.2673 11.3335 12.6667 11.3335H9.93267C9.97713 11.5513 10 11.7745 10 12.0002V12.6668H4.66667V11.3335H8.55229C8.45378 11.0549 8.29382 10.7989 8.08088 10.5859C7.70581 10.2109 7.1971 10.0002 6.66667 10.0002H4.31967L4.12061 9.71594C3.88251 9.37599 3.40469 9.10041 2.80389 8.91264C2.21996 8.73015 1.63612 8.66683 1.33333 8.66683V12.2548L5.50881 14.3425C5.67456 14.4255 5.85587 14.4729 6.04099 14.4819C6.2261 14.4909 6.41104 14.4611 6.58401 14.3946C6.58402 14.3946 6.58401 14.3946 6.58401 14.3946L13.7455 11.6402Z" fill="#222222"/>
<path fill-rule="evenodd" clip-rule="evenodd" d="M9.14307 3.45388C7.95497 3.19316 6.71344 3.34639 5.62438 3.88817C4.53533 4.42996 3.66419 5.32773 3.15545 6.43261L1.94434 5.87494C2.58027 4.49385 3.66919 3.37163 5.03051 2.6944C6.39182 2.01718 7.94374 1.82563 9.42887 2.15154C10.914 2.47745 12.2431 3.30122 13.1958 4.48624C14.1484 5.67127 14.6674 7.14633 14.6666 8.6668L13.3332 8.66609C13.3339 7.44971 12.9187 6.26966 12.1566 5.32165C11.3945 4.37363 10.3312 3.71461 9.14307 3.45388Z" fill="#222222"/>
<path fill-rule="evenodd" clip-rule="evenodd" d="M9.33325 8H15.9999V9.33333H9.33325V8Z" fill="#222222"/>
<path fill-rule="evenodd" clip-rule="evenodd" d="M8.66659 0V3.33333H7.33325V0H8.66659Z" fill="#222222"/>
</svg>
