<svg width="16" height="16" viewBox="0 0 16 16" fill="none" xmlns="http://www.w3.org/2000/svg">
<path fill-rule="evenodd" clip-rule="evenodd" d="M9.64339 9.65453C9.83272 9.33874 10.2422 9.23623 10.558 9.42556L14.362 11.7062C14.9642 12.0674 15.3332 12.7184 15.3332 13.4213V15.3333C15.3332 15.7015 15.0347 16 14.6665 16H1.33317C0.964981 16 0.666504 15.7015 0.666504 15.3333V13.4213C0.666504 12.7189 1.03559 12.068 1.63765 11.7069L5.4417 9.42622C5.75748 9.2369 6.16695 9.33941 6.35628 9.65519C6.54561 9.97098 6.44309 10.3805 6.12731 10.5698L2.32336 12.8504C2.32334 12.8504 2.32338 12.8504 2.32336 12.8504C2.12278 12.9707 1.99984 13.1878 1.99984 13.4213V14.6667H13.9998V13.4213C13.9998 13.1869 13.8768 12.97 13.6763 12.8497L9.87236 10.5691C9.55658 10.3798 9.45407 9.97031 9.64339 9.65453Z" fill="#808080"/>
<path fill-rule="evenodd" clip-rule="evenodd" d="M7.99967 1.33333C6.15853 1.33333 4.66634 2.82552 4.66634 4.66667V6.66667C4.66634 8.50781 6.15853 10 7.99967 10C9.84082 10 11.333 8.50781 11.333 6.66667V4.66667C11.333 2.82552 9.84082 1.33333 7.99967 1.33333ZM3.33301 4.66667C3.33301 2.08914 5.42215 0 7.99967 0C10.5772 0 12.6663 2.08914 12.6663 4.66667V6.66667C12.6663 9.24419 10.5772 11.3333 7.99967 11.3333C5.42215 11.3333 3.33301 9.24419 3.33301 6.66667V4.66667Z" fill="#808080"/>
</svg>
